<svg width="52" height="52" viewBox="0 0 52 52" fill="none" xmlns="http://www.w3.org/2000/svg">
<g id="Group 9">
<circle id="Ellipse 2" cx="26" cy="26" r="25.8" fill="#ECE9EC" stroke="#F89AEE" stroke-width="0.4"/>
<g id="Facbook">
<path id="Vector" d="M26 41C34.2842 41 41 34.2842 41 26C41 17.7157 34.2842 11 26 11C17.7157 11 11 17.7157 11 26C11 34.2842 17.7157 41 26 41Z" fill="#1977F3"/>
<path id="Vector_2" d="M31.8386 30.3369L32.5031 26H28.3434V23.186C28.3434 22.0005 28.9234 20.8425 30.7882 20.8425H32.6803V17.151C32.6803 17.151 30.9632 16.8578 29.3221 16.8578C25.8964 16.8578 23.6563 18.9334 23.6563 22.6945V26H19.8467V30.3369H23.6563V40.8185C24.4199 40.9388 25.2025 40.9999 25.9998 40.9999C26.7972 40.9999 27.5798 40.9367 28.3434 40.8185V30.3369H31.8386Z" fill="white"/>
</g>
</g>
</svg>
