<svg xmlns="http://www.w3.org/2000/svg" width="1280" height="241" viewBox="0 0 1280 241" fill="none">
  <path fill-rule="evenodd" clip-rule="evenodd" d="M-172.781 195.461L-138.144 176.967C-99.728 158.553 -30.4538 121.566 41.5053 118.274C109.607 117.304 180.55 145.227 248.417 151.461C320.064 157.773 392.492 140.075 460.828 131.901C532.866 126.209 600.889 127.64 672.301 141.156C739.856 156.994 810.721 187.319 882.523 188.829C950.547 190.26 1023.29 162.957 1092.48 128.371C1165.54 91.4634 1235.05 47.2728 1273.62 24.0564L1308.41 0.760467L1299.27 281.695L1265.26 280.979C1227.46 280.184 1159.44 278.753 1087.64 277.242C1019.61 275.811 947.811 274.3 879.788 272.869C807.985 271.359 736.182 269.848 668.159 268.417C596.356 266.906 528.332 265.475 456.529 263.965C388.506 262.533 316.703 261.023 244.9 259.512C176.876 258.081 105.074 256.57 37.05 255.139C-34.7527 253.629 -102.776 252.198 -140.567 251.402L-174.579 250.687L-172.781 195.461Z" fill="url(#paint0_linear_62_582)"/>
  <defs>
    <linearGradient id="paint0_linear_62_582" x1="571.489" y1="-14.7434" x2="565.577" y2="266.259" gradientUnits="userSpaceOnUse">
      <stop stop-color="#F54874"/>
      <stop offset="1" stop-color="#EB008B"/>
    </linearGradient>
  </defs>
</svg>