<svg xmlns="http://www.w3.org/2000/svg" width="1280" height="179" viewBox="0 0 1280 179" fill="none">
  <g filter="url(#filter0_d_63_969)">
    <path fill-rule="evenodd" clip-rule="evenodd" d="M-11.4654 157.638L19.6431 143.449C54.1163 129.436 116.333 101.058 180.468 100.465C241.134 101.668 303.925 126.712 364.281 133.831C428.002 141.127 492.756 128.701 553.733 123.988C617.971 121.423 678.533 124.598 741.944 137.81C801.887 152.817 864.574 179.833 928.502 183.184C989.065 186.359 1054.23 166.046 1116.35 139.639C1181.93 111.438 1244.46 77.1431 1279.14 59.1862L1310.45 41.0529L1298.35 271.785L1268.07 270.198C1234.43 268.434 1173.86 265.259 1109.94 261.908C1049.37 258.733 985.446 255.382 924.883 252.207C860.956 248.856 797.028 245.504 736.465 242.329C672.537 238.978 611.974 235.803 548.047 232.452C487.484 229.277 423.556 225.926 359.629 222.575C299.066 219.4 235.138 216.048 174.575 212.873C110.647 209.522 50.0844 206.347 16.4383 204.583L-13.8432 202.996L-11.4654 157.638Z" fill="url(#paint0_linear_63_969)"/>
    <path fill-rule="evenodd" clip-rule="evenodd" d="M-11.4654 157.638L19.6431 143.449C54.1163 129.436 116.333 101.058 180.468 100.465C241.134 101.668 303.925 126.712 364.281 133.831C428.002 141.127 492.756 128.701 553.733 123.988C617.971 121.423 678.533 124.598 741.944 137.81C801.887 152.817 864.574 179.833 928.502 183.184C989.065 186.359 1054.23 166.046 1116.35 139.639C1181.93 111.438 1244.46 77.1431 1279.14 59.1862L1310.45 41.0529L1298.35 271.785L1268.07 270.198C1234.43 268.434 1173.86 265.259 1109.94 261.908C1049.37 258.733 985.446 255.382 924.883 252.207C860.956 248.856 797.028 245.504 736.465 242.329C672.537 238.978 611.974 235.803 548.047 232.452C487.484 229.277 423.556 225.926 359.629 222.575C299.066 219.4 235.138 216.048 174.575 212.873C110.647 209.522 50.0844 206.347 16.4383 204.583L-13.8432 202.996L-11.4654 157.638Z" stroke="black"/>
  </g>
  <defs>
    <filter id="filter0_d_63_969" x="-52.8433" y="0.0529785" width="1402.29" height="308.732" filterUnits="userSpaceOnUse" color-interpolation-filters="sRGB">
      <feFlood flood-opacity="0" result="BackgroundImageFix"/>
      <feColorMatrix in="SourceAlpha" type="matrix" values="0 0 0 0 0 0 0 0 0 0 0 0 0 0 0 0 0 0 127 0" result="hardAlpha"/>
      <feOffset dy="-2"/>
      <feGaussianBlur stdDeviation="19.5"/>
      <feComposite in2="hardAlpha" operator="out"/>
      <feColorMatrix type="matrix" values="0 0 0 0 0.968627 0 0 0 0 0.968627 0 0 0 0 0.968627 0 0 0 1 0"/>
      <feBlend mode="normal" in2="BackgroundImageFix" result="effect1_dropShadow_63_969"/>
      <feBlend mode="normal" in="SourceGraphic" in2="effect1_dropShadow_63_969" result="shape"/>
    </filter>
    <linearGradient id="paint0_linear_63_969" x1="654.352" y1="6.6583" x2="642.256" y2="237.391" gradientUnits="userSpaceOnUse">
      <stop stop-color="#F54874"/>
      <stop offset="1" stop-color="#EB008B"/>
    </linearGradient>
  </defs>
</svg>