<svg xmlns="http://www.w3.org/2000/svg" width="80" height="102" viewBox="0 0 80 102" fill="none">
  <path d="M24.8061 46.504L0.550781 41.5412L11.9202 14.3687C12.6006 11.7369 14.2882 9.48476 16.6129 8.10618C18.9376 6.72761 21.7095 6.3352 24.3206 7.01504C26.9318 7.69489 29.169 9.39147 30.5415 11.7327C31.914 14.0738 32.3098 16.8685 31.642 19.5035L24.8061 46.504Z" fill="#2F2F32"/>
  <path d="M55.8713 55.7186L54.4131 22.0068C53.3074 15.6696 56.9044 9.67877 62.4365 8.69954C67.9701 7.72389 73.3734 12.1192 74.4841 18.503L79.965 50.0033L55.8713 55.7186Z" fill="#2F2F32"/>
  <path d="M68.334 101.075H14.4585L14.5233 100.652C14.6201 100.02 24.1251 37.2235 17.1148 16.6794C16.4114 14.6605 16.4732 12.4505 17.2885 10.4748C18.1038 8.49916 19.6148 6.89746 21.5308 5.97802H21.531C31.5511 1.21908 50.7854 -4.64092 67.0196 9.58037C69.4086 11.7075 71.2741 14.366 72.4686 17.3457C73.6631 20.3253 74.1539 23.5444 73.9022 26.7483L68.334 101.075Z" fill="#32313B"/>
</svg>