<svg xmlns="http://www.w3.org/2000/svg" width="43" height="43" viewBox="0 0 43 43" fill="none">
  <path d="M34.1346 40.894C30.8008 44.4755 24.6095 42.5529 24.1751 37.66C24.1411 37.2801 24.1435 36.8978 24.1825 36.5184C24.4068 34.3511 25.6483 32.3834 25.3509 30.0951C25.2836 29.5255 25.0732 28.9828 24.7396 28.5182C22.0831 24.9304 15.8469 30.1229 13.3397 26.875C11.8023 24.8835 13.6095 21.7479 12.4298 19.522C10.8727 16.5841 6.26067 18.0334 3.36847 16.4245C0.150545 14.6344 0.343038 9.65504 2.4613 6.62632C5.04461 2.93268 9.57396 0.961739 14.0469 0.677685C18.5198 0.393632 22.9619 1.61309 27.1378 3.25438C31.8825 5.11921 36.5875 7.69644 39.5073 11.9041C43.058 17.021 43.3997 23.9001 41.6239 29.8834C40.5436 33.5231 36.857 37.9693 34.1346 40.894Z" fill="#2F2E41"/>
</svg>