<svg xmlns="http://www.w3.org/2000/svg" width="161" height="127" viewBox="0 0 161 127" fill="none">
  <path d="M12.6396 122.361C4.53552 115.455 -0.38703 104.545 0.903913 93.9235C2.19486 83.3025 10.1905 73.5386 20.5621 71.2832C30.9336 69.0277 42.7565 75.2711 45.9067 85.489C47.6404 65.7892 49.6381 45.264 60.0232 28.4878C69.4266 13.2973 85.7134 2.42789 103.365 0.483376C121.016 -1.46114 139.6 5.8831 150.609 19.934C161.617 33.9848 164.313 54.4119 156.603 70.5434C150.923 82.427 140.459 91.2708 129.495 98.4658C94.0676 121.519 51.5768 130.894 9.84083 124.866L12.6396 122.361Z" fill="#F2F2F2"/>
</svg>